<svg xmlns="http://www.w3.org/2000/svg" xmlns:xlink="http://www.w3.org/1999/xlink" width="1080" zoomAndPan="magnify" viewBox="0 0 810 809.999993" height="1080" preserveAspectRatio="xMidYMid meet" version="1.0"><path fill="#c9a84c" d="M 405.003906 0.00390625 C 181.328125 0.00390625 0 181.316406 0 405.007812 C 0 628.667969 181.328125 809.992188 405.003906 809.992188 C 628.671875 809.992188 810 628.667969 810 405.007812 C 810 181.3125 628.671875 0.00390625 405.003906 0.00390625 Z M 405.003906 0.00390625 " fill-opacity="1" fill-rule="nonzero"/><path fill="#ffffff" d="M 396.757812 225.042969 L 414.613281 225.042969 L 414.613281 556.320312 L 396.757812 556.320312 Z M 396.757812 225.042969 " fill-opacity="1" fill-rule="nonzero"/><path fill="#ffffff" d="M 437.964844 598.6875 C 437.964844 523.136719 406.371094 524.507812 406.371094 524.507812 C 406.371094 524.507812 374.777344 523.132812 374.777344 598.6875 C 374.777344 598.6875 383.019531 627.535156 247.027344 627.535156 L 247.027344 641.269531 L 565.714844 641.269531 L 565.714844 627.535156 C 429.726562 627.535156 437.964844 598.6875 437.964844 598.6875 Z M 437.964844 598.6875 " fill-opacity="1" fill-rule="nonzero"/><path fill="#ffffff" d="M 405.6875 168.726562 C 398.132812 168.726562 388.035156 184.738281 388.035156 220.527344 C 388.035156 256.316406 424.710938 256.316406 424.710938 220.527344 C 424.710938 184.738281 413.242188 168.726562 405.6875 168.726562 Z M 405.6875 168.726562 " fill-opacity="1" fill-rule="nonzero"/><path fill="#ffffff" d="M 603.957031 220.875 C 601.152344 219.738281 597.941406 221.085938 596.800781 223.898438 L 522.621094 406.597656 C 521.480469 409.410156 522.832031 412.613281 525.644531 413.753906 C 526.324219 414.03125 527.023438 414.160156 527.710938 414.160156 C 529.878906 414.160156 531.9375 412.863281 532.804688 410.730469 L 606.980469 228.035156 C 608.125 225.21875 606.769531 222.015625 603.957031 220.875 Z M 603.957031 220.875 " fill-opacity="1" fill-rule="nonzero"/><path fill="#ffffff" d="M 705.199219 406.597656 L 631.019531 223.898438 C 629.878906 221.085938 626.667969 219.738281 623.863281 220.875 C 621.050781 222.015625 619.695312 225.21875 620.835938 228.035156 L 695.015625 410.730469 C 695.882812 412.863281 697.9375 414.160156 700.109375 414.160156 C 700.796875 414.160156 701.496094 414.03125 702.175781 413.753906 C 704.988281 412.613281 706.339844 409.40625 705.199219 406.597656 Z M 705.199219 406.597656 " fill-opacity="1" fill-rule="nonzero"/><path fill="#ffffff" d="M 521.304688 405.230469 C 521.304688 405.230469 522.675781 470.476562 614.714844 470.476562 C 706.75 470.476562 706.75 405.230469 706.75 405.230469 Z M 521.304688 405.230469 " fill-opacity="1" fill-rule="nonzero"/><path fill="#ffffff" d="M 633.566406 174.917969 C 633.570312 174.972656 633.566406 175.03125 633.574219 175.085938 C 629.855469 171.304688 624.328125 168.898438 618.148438 168.898438 C 606.957031 168.898438 597.886719 176.753906 597.886719 186.441406 C 597.886719 196.132812 606.957031 203.984375 618.148438 203.984375 C 618.417969 203.984375 618.679688 203.957031 618.949219 203.949219 C 614.363281 206.714844 609.007812 208.335938 603.265625 208.335938 C 594.796875 208.335938 576.832031 197.574219 546.488281 197.574219 C 522.449219 197.574219 473.703125 211.996094 405.003906 211.996094 L 405.003906 234.664062 C 460.066406 234.664062 510.738281 218.710938 535.042969 217.953125 C 580.007812 216.546875 593.652344 224.820312 606.929688 229.398438 C 620.207031 233.976562 644.707031 222.558594 644.707031 201.695312 C 644.703125 191.230469 640.445312 181.757812 633.566406 174.917969 Z M 633.566406 174.917969 " fill-opacity="1" fill-rule="nonzero"/><path fill="#ffffff" d="M 287.378906 406.597656 L 213.199219 223.898438 C 212.058594 221.085938 208.847656 219.738281 206.042969 220.875 C 203.230469 222.015625 201.875 225.21875 203.015625 228.035156 L 277.195312 410.730469 C 278.0625 412.863281 280.117188 414.160156 282.289062 414.160156 C 282.976562 414.160156 283.675781 414.03125 284.355469 413.753906 C 287.164062 412.613281 288.519531 409.40625 287.378906 406.597656 Z M 287.378906 406.597656 " fill-opacity="1" fill-rule="nonzero"/><path fill="#ffffff" d="M 186.140625 220.875 C 183.335938 219.738281 180.125 221.085938 178.980469 223.898438 L 104.800781 406.597656 C 103.660156 409.410156 105.011719 412.613281 107.824219 413.753906 C 108.503906 414.03125 109.203125 414.160156 109.894531 414.160156 C 112.0625 414.160156 114.117188 412.863281 114.984375 410.730469 L 189.164062 228.035156 C 190.304688 225.21875 188.949219 222.015625 186.140625 220.875 Z M 186.140625 220.875 " fill-opacity="1" fill-rule="nonzero"/><path fill="#ffffff" d="M 103.253906 405.230469 C 103.253906 405.230469 103.253906 470.476562 195.289062 470.476562 C 287.324219 470.476562 288.695312 405.230469 288.695312 405.230469 Z M 103.253906 405.230469 " fill-opacity="1" fill-rule="nonzero"/><path fill="#ffffff" d="M 263.511719 197.574219 C 233.167969 197.574219 215.207031 208.335938 206.738281 208.335938 C 200.992188 208.335938 195.640625 206.71875 191.054688 203.953125 C 191.324219 203.960938 191.585938 203.984375 191.855469 203.984375 C 203.046875 203.984375 212.117188 196.132812 212.117188 186.441406 C 212.117188 176.753906 203.042969 168.902344 191.855469 168.902344 C 185.671875 168.902344 180.144531 171.308594 176.429688 175.089844 C 176.433594 175.03125 176.433594 174.972656 176.4375 174.917969 C 169.558594 181.757812 165.296875 191.230469 165.296875 201.695312 C 165.296875 222.558594 189.796875 233.976562 203.074219 229.398438 C 216.355469 224.820312 230 216.550781 274.960938 217.953125 C 299.265625 218.714844 349.9375 234.664062 405.003906 234.664062 L 405.003906 212 C 336.300781 212 287.554688 197.574219 263.511719 197.574219 Z M 263.511719 197.574219 " fill-opacity="1" fill-rule="nonzero"/></svg>