<svg xmlns="http://www.w3.org/2000/svg" xmlns:xlink="http://www.w3.org/1999/xlink" width="1080" zoomAndPan="magnify" viewBox="0 0 810 809.999993" height="1080" preserveAspectRatio="xMidYMid meet" version="1.0"><defs><clipPath id="43edd6feed"><rect x="0" width="810" y="0" height="810"/></clipPath></defs><g transform="matrix(1, 0, 0, 1, 0, 0.000000000000039746)"><g clip-path="url(#43edd6feed)"><path fill="#c9102e" d="M 404.996094 0.00390625 C 628.671875 0.00390625 810 181.316406 810 405.007812 C 810 628.667969 628.671875 809.992188 404.996094 809.992188 C 181.328125 809.992188 0 628.667969 0 405.007812 C 0 181.3125 181.328125 0.00390625 404.996094 0.00390625 Z M 404.996094 0.00390625 " fill-opacity="1" fill-rule="nonzero"/><path fill="#fdfdfd" d="M 413.242188 257.335938 L 395.386719 257.335938 L 395.386719 588.609375 L 413.242188 588.609375 Z M 413.242188 257.335938 " fill-opacity="1" fill-rule="nonzero"/><path fill="#fdfdfd" d="M 372.035156 630.980469 C 372.035156 555.425781 403.628906 556.800781 403.628906 556.800781 C 403.628906 556.800781 435.222656 555.425781 435.222656 630.980469 C 435.222656 630.980469 426.980469 659.824219 562.972656 659.824219 L 562.972656 673.5625 L 244.285156 673.5625 L 244.285156 659.824219 C 380.273438 659.824219 372.035156 630.980469 372.035156 630.980469 Z M 372.035156 630.980469 " fill-opacity="1" fill-rule="nonzero"/><path fill="#fdfdfd" d="M 404.3125 201.019531 C 411.867188 201.019531 421.964844 217.035156 421.964844 252.820312 C 421.964844 288.609375 385.289062 288.609375 385.289062 252.820312 C 385.289062 217.03125 396.757812 201.019531 404.3125 201.019531 Z M 404.3125 201.019531 " fill-opacity="1" fill-rule="nonzero"/><path fill="#ffffff" d="M 206.042969 311.9375 C 208.847656 310.800781 212.058594 312.148438 213.199219 314.960938 L 287.378906 497.660156 C 288.519531 500.472656 287.167969 503.675781 284.355469 504.816406 C 283.675781 505.09375 282.976562 505.222656 282.289062 505.222656 C 280.121094 505.222656 278.0625 503.929688 277.195312 501.792969 L 203.019531 319.097656 C 201.875 316.285156 203.230469 313.078125 206.042969 311.9375 Z M 206.042969 311.9375 " fill-opacity="1" fill-rule="nonzero"/><path fill="#ffffff" d="M 104.800781 497.660156 L 178.980469 314.964844 C 180.121094 312.148438 183.332031 310.800781 186.136719 311.9375 C 188.949219 313.078125 190.304688 316.285156 189.164062 319.097656 L 114.984375 501.792969 C 114.117188 503.929688 112.0625 505.222656 109.890625 505.222656 C 109.203125 505.222656 108.503906 505.09375 107.824219 504.816406 C 105.011719 503.675781 103.660156 500.46875 104.800781 497.660156 Z M 104.800781 497.660156 " fill-opacity="1" fill-rule="nonzero"/><path fill="#fdfdfd" d="M 288.695312 496.292969 C 288.695312 496.292969 287.324219 561.539062 195.285156 561.539062 C 103.25 561.539062 103.25 496.292969 103.25 496.292969 Z M 288.695312 496.292969 " fill-opacity="1" fill-rule="nonzero"/><path fill="#fdfdfd" d="M 179.179688 278.433594 C 179.1875 278.488281 179.210938 278.542969 179.222656 278.601562 C 181.601562 273.863281 186.128906 269.878906 192.015625 267.988281 C 202.667969 264.566406 213.707031 269.269531 216.671875 278.492188 C 219.636719 287.714844 213.402344 297.96875 202.75 301.390625 C 202.492188 301.476562 202.234375 301.53125 201.976562 301.605469 C 207.1875 302.835938 212.78125 302.738281 218.246094 300.980469 C 226.3125 298.386719 240.121094 282.648438 269.011719 273.363281 C 291.898438 266.007812 342.71875 264.824219 408.121094 243.804688 L 415.058594 265.382812 C 362.636719 282.230469 309.511719 282.546875 286.140625 289.261719 C 242.90625 301.683594 232.445312 313.734375 221.203125 322.152344 C 209.964844 330.578125 183.148438 327.203125 176.765625 307.339844 C 173.5625 297.371094 174.722656 287.050781 179.179688 278.433594 Z M 179.179688 278.433594 " fill-opacity="1" fill-rule="nonzero"/><path fill="#ffffff" d="M 522.621094 367.054688 L 596.800781 184.359375 C 597.941406 181.546875 601.152344 180.199219 603.957031 181.335938 C 606.769531 182.476562 608.125 185.679688 606.984375 188.492188 L 532.804688 371.191406 C 531.9375 373.324219 529.882812 374.621094 527.710938 374.621094 C 527.023438 374.621094 526.324219 374.492188 525.644531 374.214844 C 522.835938 373.070312 521.480469 369.867188 522.621094 367.054688 Z M 522.621094 367.054688 " fill-opacity="1" fill-rule="nonzero"/><path fill="#ffffff" d="M 623.859375 181.335938 C 626.664062 180.199219 629.875 181.546875 631.019531 184.359375 L 705.199219 367.054688 C 706.339844 369.867188 704.988281 373.074219 702.175781 374.214844 C 701.496094 374.492188 700.796875 374.621094 700.105469 374.621094 C 697.9375 374.621094 695.882812 373.324219 695.015625 371.191406 L 620.835938 188.492188 C 619.695312 185.679688 621.050781 182.476562 623.859375 181.335938 Z M 623.859375 181.335938 " fill-opacity="1" fill-rule="nonzero"/><path fill="#fdfdfd" d="M 706.746094 365.6875 C 706.746094 365.6875 706.746094 430.9375 614.710938 430.9375 C 522.675781 430.9375 521.304688 365.6875 521.304688 365.6875 Z M 706.746094 365.6875 " fill-opacity="1" fill-rule="nonzero"/><path fill="#fdfdfd" d="M 538.414062 186.777344 C 567.304688 177.492188 587.695312 182.242188 595.761719 179.648438 C 601.230469 177.894531 605.828125 174.714844 609.347656 170.675781 C 609.097656 170.765625 608.855469 170.871094 608.597656 170.953125 C 597.945312 174.378906 586.902344 169.679688 583.9375 160.449219 C 580.972656 151.230469 587.207031 140.976562 597.859375 137.554688 C 603.746094 135.660156 609.746094 136.257812 614.441406 138.722656 C 614.417969 138.667969 614.40625 138.613281 614.378906 138.5625 C 623.023438 142.96875 629.976562 150.683594 633.179688 160.648438 C 639.5625 180.511719 619.734375 198.875 605.691406 198.578125 C 591.648438 198.285156 576.128906 194.585938 533.75 209.679688 C 510.847656 217.839844 467.484375 248.53125 415.058594 265.378906 L 408.125 243.800781 C 473.53125 222.78125 515.527344 194.132812 538.414062 186.777344 Z M 538.414062 186.777344 " fill-opacity="1" fill-rule="nonzero"/></g></g></svg>